<?xml version="1.0" encoding="UTF-8" standalone="no"?>
<svg
   width="64"
   version="1.1"
   height="64"
   id="svg17"
   sodipodi:docname="folder-dropbox.svg"
   inkscape:version="1.2.1 (9c6d41e410, 2022-07-14)"
   xmlns:inkscape="http://www.inkscape.org/namespaces/inkscape"
   xmlns:sodipodi="http://sodipodi.sourceforge.net/DTD/sodipodi-0.dtd"
   xmlns:xlink="http://www.w3.org/1999/xlink"
   xmlns="http://www.w3.org/2000/svg"
   xmlns:svg="http://www.w3.org/2000/svg"
   xmlns:rdf="http://www.w3.org/1999/02/22-rdf-syntax-ns#"
   xmlns:cc="http://creativecommons.org/ns#"
   xmlns:dc="http://purl.org/dc/elements/1.1/">
  <sodipodi:namedview
     pagecolor="#ffffff"
     bordercolor="#666666"
     borderopacity="1"
     objecttolerance="10"
     gridtolerance="10"
     guidetolerance="10"
     inkscape:pageopacity="0"
     inkscape:pageshadow="2"
     inkscape:window-width="1920"
     inkscape:window-height="1002"
     id="namedview19"
     showgrid="true"
     inkscape:zoom="8.0000004"
     inkscape:cx="21.249999"
     inkscape:cy="44.312498"
     inkscape:window-x="0"
     inkscape:window-y="0"
     inkscape:window-maximized="1"
     inkscape:current-layer="layer1"
     inkscape:document-rotation="0"
     inkscape:showpageshadow="2"
     inkscape:pagecheckerboard="0"
     inkscape:deskcolor="#d1d1d1">
    <inkscape:grid
       type="xygrid"
       id="grid908" />
  </sodipodi:namedview>
  <defs
     id="defs5455">
    <linearGradient
       inkscape:collect="always"
       id="linearGradient842">
      <stop
         style="stop-color:#5e81ac;stop-opacity:1;"
         offset="0"
         id="stop838" />
      <stop
         style="stop-color:#88c0d0;stop-opacity:1;"
         offset="1"
         id="stop840" />
    </linearGradient>
    <linearGradient
       inkscape:collect="always"
       xlink:href="#linearGradient860"
       id="linearGradient862"
       x1="113.94583"
       y1="366.97165"
       x2="406.08234"
       y2="159.71205"
       gradientUnits="userSpaceOnUse"
       gradientTransform="matrix(0.17799897,0,0,0.17852009,370.28919,468.28619)" />
    <linearGradient
       inkscape:collect="always"
       id="linearGradient860">
      <stop
         style="stop-color:#8fbcbb;stop-opacity:1;"
         offset="0"
         id="stop856" />
      <stop
         style="stop-color:#a3be8c;stop-opacity:1;"
         offset="1"
         id="stop858" />
    </linearGradient>
    <linearGradient
       inkscape:collect="always"
       xlink:href="#linearGradient842"
       id="linearGradient844"
       x1="386.3063"
       y1="539.79773"
       x2="447.95114"
       y2="504.71896"
       gradientUnits="userSpaceOnUse"
       gradientTransform="matrix(0.89220779,0,0,1.0832755,44.905939,-43.951678)" />
  </defs>
  <metadata
     id="metadata5458">
    <rdf:RDF>
      <cc:Work
         rdf:about="">
        <dc:format>image/svg+xml</dc:format>
        <dc:type
           rdf:resource="http://purl.org/dc/dcmitype/StillImage" />
      </cc:Work>
    </rdf:RDF>
  </metadata>
  <g
     inkscape:label="Capa 1"
     inkscape:groupmode="layer"
     id="layer1"
     transform="translate(-384.57143,-483.798)">
    <path
       style="fill:url(#linearGradient862);fill-opacity:1;stroke-width:0.165167"
       d="m 416.56885,496.798 c -0.77296,0 -1.68528,-0.50466 -2.0318,-1.11585 l -1.55431,-2.74667 c -0.34485,-0.61114 -1.25998,-1.10996 -2.03256,-1.1111 l -17.10301,-0.026 c -2.52449,-0.004 -3.2764,0.90502 -3.27574,2.90836 l 2.8e-4,0.84425 v 2.48461 l -2.8e-4,32.7624 c -1e-5,0.89375 2.02423,3 3,3 h 46 c 1,0 3,-2 3,-3 l 0,-31 c 0,-2 -1,-3 -2.95097,-3 z"
       id="path4-3"
       sodipodi:nodetypes="sccsssccscsssss" />
    <path
       style="fill:#434c5e;fill-opacity:1;stroke-width:0.169792"
       d="m 438.57143,509.19803 c 0,1.42999 -0.68236,2.59997 -2.24338,2.59997 h -39.59788 c -1.56099,0 -2.15874,-1.16998 -2.15874,-2.59997 V 501.798 c 0,-2 1,-3 3,-3 h 38 c 2,0 3,1 3,3 z"
       id="path8-6"
       sodipodi:nodetypes="sssssssss" />
    <path
       style="fill:url(#linearGradient844);fill-opacity:1;stroke-width:0.190958"
       d="m 437.57143,502.798 h -42 c -4,0 -6,2 -6,6 v 27 c 0,3 2,5 5,5 h 44 c 3,0 5,-2 5,-5 v -27 c 0,-4 -2,-6 -6,-6 z"
       id="path10"
       sodipodi:nodetypes="sssssssss" />
    <path
       d="m 427.99463,518.24311 c -0.008,-0.18926 -0.10813,-0.36308 -0.26653,-0.46736 l -5.95617,-3.88196 c -0.21631,-0.14287 -0.50213,-0.12365 -0.70299,0.0425 l -3.78538,3.15962 -3.78924,-3.15962 c -0.20086,-0.16617 -0.48284,-0.18151 -0.70301,-0.0425 l -5.9523,3.8858 c -0.1584,0.10424 -0.2588,0.27812 -0.26653,0.46739 -0.008,0.18927 0.0734,0.37081 0.22017,0.49054 l 3.53817,2.83517 -3.53817,2.83133 c -0.14675,0.11977 -0.23176,0.30128 -0.22017,0.49055 0.008,0.18926 0.10813,0.36308 0.26653,0.46736 l 3.90511,2.54935 c -0.004,0.027 -0.008,0.058 -0.008,0.085 v 1.63389 c 0,0.20858 0.10812,0.40171 0.28584,0.506 l 5.96775,3.57679 c 0.0928,0.0579 0.197,0.085 0.30516,0.085 0.10813,0 0.20857,-0.027 0.30514,-0.085 l 5.96776,-3.57679 c 0.17762,-0.10813 0.28584,-0.30128 0.28584,-0.506 v -1.63389 c 0,-0.0347 -0.004,-0.0695 -0.008,-0.10036 l 3.88193,-2.53389 c 0.1584,-0.10424 0.2588,-0.2781 0.26653,-0.46737 0.008,-0.18927 -0.0734,-0.37081 -0.22017,-0.49054 l -3.53817,-2.83133 3.53817,-2.83517 c 0.14675,-0.11977 0.2279,-0.30514 0.22017,-0.49441 z m -10.71107,6.33859 -4.87851,-3.00901 4.87851,-3.00898 4.8785,3.00512 z m -4.21027,-9.45572 3.19826,2.66906 -4.94803,3.05535 -3.1519,-2.52615 z m -1.74977,7.16518 4.94803,3.05534 -3.19826,2.66906 -4.90554,-3.19825 z m 11.3484,7.00295 -5.37677,3.22143 -5.37679,-3.22143 v -0.61803 l 0.87295,0.57167 c 0.10036,0.0656 0.21245,0.0965 0.32448,0.0965 0.1351,0 0.27037,-0.0464 0.37853,-0.13899 l 3.78924,-3.15963 3.78538,3.15963 c 0.10813,0.0928 0.24333,0.13899 0.37854,0.13899 0.11201,0 0.22401,-0.0309 0.32445,-0.0965 l 0.89999,-0.58712 z m -1.17811,-1.27855 -3.19825,-2.66906 4.94803,-3.05534 3.15192,2.52228 z m 1.74978,-7.16904 -4.94803,-3.05534 3.19825,-2.66906 4.9017,3.19826 z"
       id="path10-3"
       style="fill:#434c5e;fill-opacity:1;stroke-width:0.0386264"
       inkscape:connector-curvature="0" />
  </g>
</svg>
