<?xml version="1.0" encoding="UTF-8" standalone="no"?>
<svg
   width="32"
   version="1.1"
   height="32"
   viewBox="0 0 32 32"
   id="svg15"
   sodipodi:docname="folder-dropbox.svg"
   inkscape:version="1.2.1 (9c6d41e410, 2022-07-14)"
   xmlns:inkscape="http://www.inkscape.org/namespaces/inkscape"
   xmlns:sodipodi="http://sodipodi.sourceforge.net/DTD/sodipodi-0.dtd"
   xmlns:xlink="http://www.w3.org/1999/xlink"
   xmlns="http://www.w3.org/2000/svg"
   xmlns:svg="http://www.w3.org/2000/svg"
   xmlns:rdf="http://www.w3.org/1999/02/22-rdf-syntax-ns#"
   xmlns:cc="http://creativecommons.org/ns#"
   xmlns:dc="http://purl.org/dc/elements/1.1/">
  <sodipodi:namedview
     pagecolor="#ffffff"
     bordercolor="#666666"
     borderopacity="1"
     objecttolerance="10"
     gridtolerance="10"
     guidetolerance="10"
     inkscape:pageopacity="0"
     inkscape:pageshadow="2"
     inkscape:window-width="1920"
     inkscape:window-height="1002"
     id="namedview17"
     showgrid="true"
     inkscape:zoom="13.876971"
     inkscape:cx="11.601955"
     inkscape:cy="14.160151"
     inkscape:window-x="0"
     inkscape:window-y="0"
     inkscape:window-maximized="1"
     inkscape:current-layer="layer1"
     inkscape:document-rotation="0"
     inkscape:showpageshadow="2"
     inkscape:pagecheckerboard="0"
     inkscape:deskcolor="#d1d1d1">
    <inkscape:grid
       type="xygrid"
       id="grid1205" />
  </sodipodi:namedview>
  <defs
     id="defs5455">
    <linearGradient
       inkscape:collect="always"
       xlink:href="#linearGradient860"
       id="linearGradient862"
       x1="113.94583"
       y1="366.97165"
       x2="406.08234"
       y2="159.71205"
       gradientUnits="userSpaceOnUse"
       gradientTransform="matrix(0.08570319,0,0,0.08743907,378.28739,508.28172)" />
    <linearGradient
       inkscape:collect="always"
       id="linearGradient860">
      <stop
         style="stop-color:#8fbcbb;stop-opacity:1;"
         offset="0"
         id="stop856" />
      <stop
         style="stop-color:#a3be8c;stop-opacity:1;"
         offset="1"
         id="stop858" />
    </linearGradient>
    <linearGradient
       inkscape:collect="always"
       xlink:href="#linearGradient842"
       id="linearGradient844"
       x1="386.3063"
       y1="539.79773"
       x2="447.95114"
       y2="504.71896"
       gradientUnits="userSpaceOnUse"
       gradientTransform="matrix(0.42958147,0,0,0.5305879,221.62139,257.38782)" />
    <linearGradient
       inkscape:collect="always"
       id="linearGradient842">
      <stop
         style="stop-color:#5e81ac;stop-opacity:1;"
         offset="0"
         id="stop838" />
      <stop
         style="stop-color:#88c0d0;stop-opacity:1;"
         offset="1"
         id="stop840" />
    </linearGradient>
  </defs>
  <metadata
     id="metadata5458">
    <rdf:RDF>
      <cc:Work
         rdf:about="">
        <dc:format>image/svg+xml</dc:format>
        <dc:type
           rdf:resource="http://purl.org/dc/dcmitype/StillImage" />
      </cc:Work>
    </rdf:RDF>
  </metadata>
  <g
     inkscape:label="Capa 1"
     inkscape:groupmode="layer"
     id="layer1"
     transform="translate(-384.57143,-515.798)">
    <path
       style="fill:url(#linearGradient862);fill-opacity:1;stroke-width:0.0802087"
       d="m 400.57017,522.24679 c -0.37214,0 -0.8114,-0.24719 -0.97825,-0.54655 l -0.74836,-1.34532 c -0.16607,-0.29933 -0.60667,-0.54365 -0.97866,-0.54421 l -8.23478,-0.0127 c -1.21549,-0.002 -1.57752,0.44328 -1.57721,1.42452 l 1.4e-4,0.41351 v 1.21696 l -1.4e-4,16.04701 c -10e-6,0.43776 0.97464,1.4694 1.44444,1.4694 h 22.14816 c 0.48149,0 1.44444,-0.9796 1.44444,-1.4694 v -15.18379 c 0,-0.9796 -0.4815,-1.46939 -1.42083,-1.46939 z"
       id="path4-3"
       sodipodi:nodetypes="sccsssccscsssss" />
    <path
       style="fill:#434c5e;fill-opacity:1;stroke-width:0.0824548"
       d="m 411.16403,528.32031 c 0,0.70041 -0.32856,1.27347 -1.08017,1.27347 h -19.06564 c -0.75158,0 -1.03939,-0.57306 -1.03939,-1.27347 v -3.62453 c 0,-0.9796 0.4815,-1.4694 1.44447,-1.4694 h 18.29626 c 0.96297,0 1.44447,0.4898 1.44447,1.4694 z"
       id="path8-6"
       sodipodi:nodetypes="sssssssss" />
    <path
       style="fill:url(#linearGradient844);fill-opacity:1;stroke-width:0.0927335"
       d="m 410.68253,525.18558 h -20.2222 c -1.92592,0 -2.8889,0.9796 -2.8889,2.9388 v 13.22459 c 0,1.4694 0.96298,2.449 2.4074,2.449 h 21.1852 c 1.44442,0 2.4074,-0.9796 2.4074,-2.449 v -13.22459 c 0,-1.9592 -0.96298,-2.9388 -2.8889,-2.9388 z"
       id="path10"
       sodipodi:nodetypes="sssssssss" />
    <path
       d="m 406.28305,533.02053 c -0.004,-0.0946 -0.0541,-0.18154 -0.13326,-0.23368 l -2.97809,-1.94098 c -0.10816,-0.0714 -0.25107,-0.0618 -0.3515,0.0213 l -1.89269,1.57981 -1.89463,-1.57981 c -0.10043,-0.0831 -0.24142,-0.0908 -0.3515,-0.0213 l -2.97616,1.9429 c -0.0792,0.0521 -0.1294,0.13906 -0.13327,0.2337 -0.004,0.0946 0.0367,0.1854 0.11009,0.24527 l 1.76909,1.41759 -1.76909,1.41566 c -0.0734,0.0599 -0.11588,0.15064 -0.11009,0.24528 0.004,0.0946 0.0541,0.18154 0.13327,0.23368 l 1.95256,1.27468 c -0.002,0.0135 -0.004,0.029 -0.004,0.0425 v 0.81694 c 0,0.10429 0.0541,0.20086 0.14292,0.253 l 2.98388,1.7884 c 0.0464,0.029 0.0985,0.0425 0.15258,0.0425 0.0541,0 0.10429,-0.0135 0.15257,-0.0425 l 2.98389,-1.7884 c 0.0888,-0.0541 0.14292,-0.15064 0.14292,-0.253 v -0.81694 c 0,-0.0173 -0.002,-0.0348 -0.004,-0.0502 l 1.94097,-1.26695 c 0.0792,-0.0521 0.1294,-0.13905 0.13326,-0.23369 0.004,-0.0946 -0.0367,-0.1854 -0.11008,-0.24527 l -1.76909,-1.41566 1.76909,-1.41759 c 0.0734,-0.0599 0.11395,-0.15257 0.11008,-0.24721 z m -5.35554,3.1693 -2.43926,-1.5045 2.43926,-1.5045 2.43925,1.50257 z m -2.10514,-4.72787 1.59913,1.33454 -2.47402,1.52767 -1.57595,-1.26307 z m -0.87489,3.5826 2.47402,1.52767 -1.59913,1.33454 -2.45278,-1.59913 z m 5.67421,3.50148 -2.68839,1.61072 -2.6884,-1.61072 v -0.30901 l 0.43648,0.28583 c 0.0502,0.0328 0.10622,0.0483 0.16224,0.0483 0.0676,0 0.13518,-0.0232 0.18926,-0.0695 l 1.89463,-1.57982 1.89269,1.57982 c 0.0541,0.0464 0.12167,0.0695 0.18927,0.0695 0.056,0 0.11201,-0.0154 0.16223,-0.0483 l 0.44999,-0.29356 z m -0.58905,-0.63927 -1.59913,-1.33454 2.47402,-1.52767 1.57596,1.26114 z m 0.87489,-3.58453 -2.47402,-1.52767 1.59913,-1.33454 2.45085,1.59914 z"
       id="path10-3"
       style="fill:#434c5e;fill-opacity:1;stroke-width:0.0193132"
       inkscape:connector-curvature="0" />
  </g>
</svg>
